<svg xmlns="http://www.w3.org/2000/svg" width="300" height="200" viewBox="0 0 300 200"><rect width="100%" height="100%" fill="#f00000"/><path fill="#FFF" d="m60.115 116.56 12.46-32.66h5.62l12.42 32.66h-6.54l-3.03-8.14h-11.41l-2.99 8.14h-6.53Zm10.58-12.6h9.2l-4.51-12.84-4.69 12.84Zm32.2 13.06q-2.48 0-4.6-.97-2.12-.96-3.63-2.66-1.52-1.71-2.37-3.98-.85-2.28-.85-4.9 0-2.62.8-4.88.81-2.25 2.23-3.95 1.43-1.71 3.41-2.67 1.97-.97 4.32-.97 2.67 0 4.81 1.29 2.14 1.29 3.33 3.36V82.98h6.17v26.5q0 .96.32 1.38.32.41 1.1.46v5.24q-1.61.32-2.62.32-1.66 0-2.72-.83-1.05-.82-1.19-2.16l-.14-1.52q-1.33 2.3-3.61 3.48-2.28 1.17-4.76 1.17Zm1.61-5.24q.87 0 1.79-.3t1.7-.85q.79-.56 1.41-1.29.62-.74.94-1.61v-5.75q-.37-1.01-1.03-1.87-.67-.85-1.52-1.47t-1.8-.99q-.94-.36-1.86-.36-1.38 0-2.55.59-1.17.6-2 1.64-.83 1.03-1.29 2.37-.46 1.33-.46 2.76 0 1.51.51 2.8.5 1.29 1.37 2.26.88.96 2.1 1.51 1.22.56 2.69.56Zm31.23 4.78h-6.67l-8.88-24.1h6.35l6.12 19.09 6.16-19.09h5.8l-8.88 24.1Zm22.45.46q-2.9 0-5.24-.99-2.35-.99-4.01-2.69-1.65-1.7-2.55-3.96-.9-2.25-.9-4.73 0-2.58.88-4.86.87-2.27 2.53-4 1.65-1.72 4.02-2.74 2.37-1.01 5.32-1.01 2.94 0 5.26 1.01 2.33 1.02 3.96 2.72 1.63 1.7 2.48 3.95.86 2.26.86 4.7 0 .59-.03 1.15-.02.55-.11.92h-18.63q.13 1.42.69 2.53.55 1.1 1.42 1.88.88.78 1.98 1.2 1.1.41 2.3.41 1.84 0 3.47-.9 1.64-.89 2.23-2.36l5.29 1.47q-1.33 2.76-4.25 4.53-2.92 1.77-6.97 1.77Zm-6.26-14.54h12.52q-.23-2.71-2-4.34-1.78-1.64-4.31-1.64-1.24 0-2.32.44-1.08.44-1.91 1.22-.83.78-1.35 1.89-.53 1.1-.63 2.43Zm36.99-10.3v5.61q-2.81.05-5.02 1.08-2.2 1.04-3.17 3.11v14.58h-6.16v-24.1h5.65v5.15q.65-1.24 1.52-2.23.88-.99 1.89-1.73 1.01-.73 2.05-1.13 1.03-.39 2-.39h.76q.25 0 .48.05Zm16.65 18.26 1.24 4.88q-1.24.55-3.03 1.1-1.8.55-3.78.55-1.28 0-2.41-.32-1.13-.32-1.98-1.03-.85-.72-1.36-1.84-.5-1.13-.5-2.74V97.19h-3.18v-4.73h3.18v-7.82h6.16v7.82h5.06v4.73h-5.06v11.78q0 1.29.67 1.82t1.63.53q.97 0 1.89-.33.92-.32 1.47-.55Zm28.48.55h5.84v5.57h-18.68v-5.57h6.53V97.06q-.41.55-1.31 1.12-.9.58-1.95 1.08-1.06.51-2.19.83-1.13.32-2 .32v-5.75q.83 0 2.03-.53 1.19-.52 2.34-1.26t2-1.45q.85-.71 1.08-1.13h6.31v20.7Z"/></svg>